<svg xmlns="http://www.w3.org/2000/svg" viewBox="115 185 235 235" width="500" height="500">
  <g>
    <ns0:circle xmlns:ns0="http://www.w3.org/2000/svg" r="166.66666666666666" cx="361.87392679850257" cy="384.09608603144864" fill="#4338ca" transform="matrix(0.6403452413869534,0,0,0.6403452413869534,0,54.04589479141107)" />
    <ns0:path xmlns:ns0="http://www.w3.org/2000/svg" d="M338.94083099441093 457.21029153170355L257.2446949743322 457.21029153170355Q244.77932210741878 457.21029153170355 237.97131077241224 450.5620926693498Q231.19526193193624 443.94585630152653 231.19526193193624 430.5535710932272L231.19526193193624 430.5535710932272L231.19526193193624 320.66651489720596Q237.140285914618 315.6164407613795 245.7381969433352 312.8676662317524Q254.33610797205242 310.11889170212544 263.54130639685 310.11889170212544L263.54130639685 310.11889170212544Q277.1253665723326 310.11889170212544 286.58626495337455 316.8310155535403L286.58626495337455 316.8310155535403Q296.8142632031496 324.50201424087163 296.8142632031496 337.95822443823204L296.8142632031496 337.95822443823204L296.8142632031496 399.4221014204743Q290.5176517806318 399.9974263220241 284.4447778198279 402.969938313365Q278.371903859024 405.94245030470586 278.371903859024 409.1067372632301L278.371903859024 409.1067372632301Q278.371903859024 411.0244869350629 280.5133909925705 412.36691170534584L280.5133909925705 412.36691170534584Q291.636339089201 403.0338633024261 313.53064784262585 403.0338633024261L313.53064784262585 403.0338633024261L340.1873682811022 403.0338633024261Q347.60266701218916 416.07456107088933 347.60266701218916 429.6586212463719L347.60266701218916 429.6586212463719Q347.60266701218916 436.40270759231737 345.23744241692873 444.61706868666795Q342.8722178216682 452.79946728648804 338.94083099441093 457.21029153170355L338.94083099441093 457.21029153170355ZM415.13941795523544 361.13103297287876L415.13941795523544 377.17620522721336Q415.5868928786631 377.5277926670494 417.69641751767915 377.5277926670494Q419.8379046512258 377.5277926670494 420.956591959795 375.8337804569304Q422.10724176289466 374.1397682468114 422.10724176289466 370.33623139767633L422.10724176289466 370.33623139767633L422.10724176289466 366.2769945922968Q422.10724176289466 362.2497202814478 421.14836692697827 360.4917830822677Q420.1894920910619 358.7658083776182 417.9840799684541 358.7658083776182Q415.81063034037686 358.7658083776182 415.01156797711326 359.21328330104586L415.01156797711326 359.21328330104586Q415.13941795523544 359.7566457080652 415.13941795523544 361.13103297287876L415.13941795523544 361.13103297287876ZM473.119383033648 402.8101258407123L473.119383033648 402.8101258407123L492.55257970822083 422.6907974387126Q490.53894255279636 440.23820693598304 481.49355660065146 449.6671428224945Q472.44817064850656 459.09607870900584 456.46692338323294 459.09607870900584L456.46692338323294 459.09607870900584Q444.4490254397472 459.09607870900584 435.56345196025507 453.374792188038L435.56345196025507 453.374792188038Q424.21676640191083 446.1832309186649 418.62332985906505 430.45768360963564L418.62332985906505 430.45768360963564L414.5640930536856 419.43062299659687Q409.8336438631645 419.33473551300517 402.64208259379143 418.216048204436L402.64208259379143 418.216048204436Q401.74713274693613 419.1109980512913 401.74713274693613 420.6771602832881L401.74713274693613 420.6771602832881Q401.74713274693613 423.7135972636902 410.8564436881421 424.2569596707094L410.8564436881421 424.2569596707094L417.2489425942515 440.4619443976968L417.2489425942515 450.01873026233045Q404.33609480391044 459.09607870900584 384.1038357660741 459.09607870900584L384.1038357660741 459.09607870900584Q369.6248257437362 459.09607870900584 360.96298972595787 453.1510547263241Q352.30115370817964 447.20603074364226 352.30115370817964 435.859345185298L352.30115370817964 435.859345185298L352.30115370817964 329.1046134532704Q352.30115370817964 324.15042680103556 361.4104646493855 319.4839025995757Q370.5197755905915 314.8173783981158 385.2225230746433 311.9727163848971Q399.95723305322554 309.09609187714784 414.6919430318078 309.09609187714784L414.6919430318078 309.09609187714784Q448.38041226700454 309.09609187714784 467.3661340181495 322.9038895143443L467.3661340181495 322.9038895143443Q487.3746555942722 337.4148620312127 487.3746555942722 363.71999502985307L487.3746555942722 363.71999502985307Q487.3746555942722 378.7743299537408 478.90459454367704 389.4817656214741Q470.4025709985516 400.2211637837379 457.48972320821053 404.37628807270903L457.48972320821053 404.37628807270903Q457.48972320821053 407.98804995466094 461.80465996983435 407.98804995466094Q466.15155922598876 407.98804995466094 473.119383033648 402.8101258407123Z " fill="#ffffff" transform="matrix(0.6403452413869534,0,0,0.6403452413869534,0,54.04589479141107)" />
  </g>
</svg>