<svg xmlns="http://www.w3.org/2000/svg" viewBox="380 240 510 120" width="1200" height="282">
  <g>
    <ns0:path xmlns:ns0="http://www.w3.org/2000/svg" d="M688.6270848664533 428.6999005582918L630.4303746079421 428.6999005582918Q621.5505948736624 428.6999005582918 616.7008690187864 423.96401803334254Q611.8739118298957 419.25090417437866 611.8739118298957 409.7108331265241L611.8739118298957 409.7108331265241L611.8739118298957 331.4321594689493Q616.1088837031676 327.8347102432667 622.2336548532222 325.8766049685281Q628.3584260032768 323.9184996937895 634.9158018070527 323.9184996937895L634.9158018070527 323.9184996937895Q644.5924848508192 323.9184996937895 651.3320099824779 328.6999195507094L651.3320099824779 328.6999195507094Q658.6179830977844 334.1643993871893 658.6179830977844 343.7500077670145L658.6179830977844 343.7500077670145L658.6179830977844 387.5341524568098Q654.1325558986738 387.94398844454577 649.8065093614606 390.0614743811818Q645.4804628242472 392.17896031781777 645.4804628242472 394.43305825036566L645.4804628242472 394.43305825036566Q645.4804628242472 395.7991782094857 647.0059634452646 396.7554621808697L647.0059634452646 396.7554621808697Q654.9294592081604 390.1070117131525 670.5259954081135 390.1070117131525L670.5259954081135 390.1070117131525L689.5150628398812 390.1070117131525Q694.7973933484785 399.3966274351683 694.7973933484785 409.0733104789348L694.7973933484785 409.0733104789348Q694.7973933484785 413.8774990018401 693.1125120655639 419.72904616007065Q691.4276307826493 425.55782465231584 688.6270848664533 428.6999005582918L688.6270848664533 428.6999005582918ZM740.1070386592912 356.56876671675695L740.1070386592912 356.56876671675695L740.1070386592912 388.2627497683404Q740.1070386592912 400.19353074465494 745.8675111535804 403.7909799703376L745.8675111535804 403.7909799703376Q745.9358171515364 404.2008159580736 745.9358171515364 405.3164805913549L745.9358171515364 405.3164805913549L745.9358171515364 406.75090654843086Q745.9358171515364 418.52230686284804 739.5378220096579 424.44216001903453L739.5378220096579 424.44216001903453Q733.6179688534712 430.0432518514265 723.7363678158367 430.0432518514265Q713.831998112217 430.0432518514265 707.4340029703383 424.44216001903453L707.4340029703383 424.44216001903453Q699.3511265455451 417.3155675656253 699.3511265455451 403.6315993084403L699.3511265455451 403.6315993084403L699.3511265455451 351.60519753195433Q700.785552502621 350.55783889662905 702.4704337855356 349.92031624903973Q704.1553150684504 349.2827936014504 705.9995770132624 348.3265096300664L705.9995770132624 348.3265096300664Q702.5615084494771 346.5505536832104 699.760962533281 342.20173848001184Q696.9604166170851 337.8301546108279 696.9604166170851 332.0013761185827L696.9604166170851 332.0013761185827Q696.9604166170851 321.9148570870801 703.586098418817 315.49409327921626Q710.2345488865342 309.09609813733766 719.8884632643155 309.09609813733766Q729.5196089761114 309.09609813733766 736.0542161139019 315.6307052751282Q742.5888232516925 322.1425437469335 742.5888232516925 332.0013761185827L742.5888232516925 332.0013761185827Q742.5888232516925 339.92487188147857 737.62525406689 345.8902623696358Q732.6616848820872 351.8556528577931 725.5350924286781 353.35838481282497L725.5350924286781 353.35838481282497Q725.5350924286781 356.4093860548596 727.857496359182 356.4093860548596L727.857496359182 356.4093860548596Q731.9330875705566 356.4093860548596 736.1680594438285 353.19900415092764L736.1680594438285 353.19900415092764Q739.3784413477606 355.680788743329 740.1070386592912 356.56876671675695ZM793.0897244071609 375.0569234968474L793.0897244071609 371.2090189453261Q793.0897244071609 368.34016703117413 790.9267011385543 368.34016703117413L790.9267011385543 368.34016703117413Q788.9230585318451 368.34016703117413 788.9230585318451 370.7308769596341L788.9230585318451 370.7308769596341L788.9230585318451 378.9731340463246Q789.5605811794344 379.5423506959579 790.835626474613 379.5423506959579Q792.133440435777 379.5423506959579 792.6115824214692 378.5860667245739Q793.0897244071609 377.62978275318994 793.0897244071609 375.0569234968474L793.0897244071609 375.0569234968474ZM796.0496509852544 403.6315993084403L796.0496509852544 403.6315993084403Q790.9267011385543 403.6315993084403 787.3292519128718 402.90300199690955L787.3292519128718 402.90300199690955Q787.0787965870331 403.6315993084403 787.0787965870331 404.2691219560296L787.0787965870331 404.2691219560296Q787.0787965870331 406.0450779028855 789.6061185114052 406.6370632185042Q792.133440435777 407.22904853412285 796.0496509852544 407.22904853412285L796.0496509852544 407.22904853412285Q808.5268799452167 407.22904853412285 817.3383536815406 403.56329331048426L817.3383536815406 403.56329331048426Q825.9904467559672 405.7946225770469 830.7946352788724 413.33105101819206L830.7946352788724 413.33105101819206Q834.7108458283496 419.478590834232 834.7108458283496 427.81192258486385L834.7108458283496 427.81192258486385Q834.7108458283496 442.6115554753303 822.142542204446 450.85381256202083Q809.5742385805422 459.09606964871136 789.7654991733025 459.09606964871136Q769.9567597660628 459.09606964871136 759.1416434230296 452.06055185924345L759.1416434230296 452.06055185924345Q749.1461990554683 445.66255671736496 749.1461990554683 435.41665702396506L749.1461990554683 435.41665702396506Q749.1461990554683 431.50044647448783 750.9904610002804 427.8574599168345Q752.8347229450924 424.2144733591813 755.2254328735523 422.8483534000612L755.2254328735523 422.8483534000612Q759.2327180869709 426.21811596589055 767.04237051994 428.29006457055584Q774.829254286924 430.36201317522114 783.0715113736146 430.36201317522114Q791.3365371262903 430.36201317522114 793.6817097227797 429.7244905276318Q796.0496509852544 429.0869678800425 796.0496509852544 427.4931612610692L796.0496509852544 427.4931612610692Q796.0496509852544 426.69625795158254 795.5715089995624 425.8765859761106L795.5715089995624 425.8765859761106Q791.5642237861437 426.76456394953857 785.5532959660159 426.76456394953857L785.5532959660159 426.76456394953857Q770.1161404279601 426.76456394953857 761.3046666916362 422.37021141436924L761.3046666916362 422.37021141436924Q750.5806250125443 417.08788090577207 750.5806250125443 406.4321452246362L750.5806250125443 406.4321452246362Q750.5806250125443 402.26547934932023 752.2655062954591 398.7135674556083Q753.9503875783737 395.138886895911 757.2290754802616 393.3856996150404L757.2290754802616 393.3856996150404Q752.8347229450924 390.67622836278576 749.7381843710871 385.14344252834985Q746.664414463067 379.61065669391394 746.664414463067 371.52778026912074L746.664414463067 371.52778026912074Q746.664414463067 356.158930729021 758.1853594516456 347.27915099474114Q769.7063044402241 338.3993712604613 788.1261552223584 338.3993712604613L788.1261552223584 338.3993712604613Q797.0059349566384 338.3993712604613 805.2481920433288 341.35929783855454L805.2481920433288 341.35929783855454L805.2481920433288 335.7582060061626Q809.9840745682782 333.91394406135066 817.7709583352621 333.91394406135066Q825.5806107682313 333.91394406135066 829.6789706455911 336.55510931564925L829.6789706455911 336.55510931564925Q834.6197711644083 339.76549121958124 834.6197711644083 347.84836764437443L834.6197711644083 347.84836764437443Q834.6197711644083 352.33379484348507 833.7090245249951 355.0432660957397Q832.7982778855817 357.77550601397957 831.0223219387258 360.7354325920729L831.0223219387258 360.7354325920729Q833.1170392093763 366.0177631006701 833.1170392093763 373.85018419962466L833.1170392093763 373.85018419962466Q833.1170392093763 388.0350631084872 823.0532888438593 395.821946875471Q813.0123071443275 403.6315993084403 796.0496509852544 403.6315993084403ZM923.6452551670604 373.3720422139327L923.3947998412218 388.99134707987116Q923.3947998412218 394.7518195741603 924.6926138023857 398.280962801887Q925.9676590975644 401.78733736362824 929.155272335511 403.7909799703376L929.155272335511 403.7909799703376Q929.2463469994523 404.2008159580736 929.2463469994523 405.3164805913549L929.2463469994523 405.3164805913549L929.2463469994523 406.75090654843086Q929.2463469994523 417.7937095513173 922.8711205235591 423.9184807013719Q916.5186627136511 430.0432518514265 906.4776810141193 430.0432518514265Q896.4366993145875 430.0432518514265 890.1753161686208 424.3738540210786L890.1753161686208 424.3738540210786Q882.8893430533144 417.8847842152587 882.8893430533144 404.67895794376557L882.8893430533144 404.67895794376557Q882.8893430533144 399.0778661113736 883.4130223709769 394.7973569061311Q883.9367016886397 390.51684770088843 884.1416196825076 388.6725857560765Q884.3465376763756 386.82832381126445 884.574224336229 385.23451719229115Q884.8246796620676 383.6179419073326 884.8246796620676 380.4986346673419Q884.8246796620676 377.3793274273513 883.9822390206105 376.01320746823137Q883.139798379153 374.6470875091113 881.6598350901063 374.6470875091113Q880.1798718010598 374.6470875091113 879.0642071677785 375.307378822686L879.0642071677785 375.307378822686L880.0887971371185 388.35382443228184Q878.6543711800423 396.43670085707504 878.6543711800423 405.4758612532522Q878.6543711800423 414.5150216494294 882.7299623914171 421.9603754266333L882.7299623914171 421.9603754266333Q874.8975412924624 430.0432518514265 860.7354310495855 430.0432518514265L860.7354310495855 430.0432518514265Q852.6525546247922 430.0432518514265 846.7099328026202 425.8082799781546L846.7099328026202 425.8082799781546Q839.8337956750497 421.0040914552493 839.8337956750497 413.0805956923534L839.8337956750497 413.0805956923534L839.8337956750497 319.66075915453223Q843.6817002265709 317.4294298879696 849.0778740650949 315.9950039308935Q854.4740479036188 314.5378093078323 860.0068337380546 314.5378093078323L860.0068337380546 314.5378093078323Q869.2053747961293 314.5378093078323 875.216302616257 318.13525853351484L875.216302616257 318.13525853351484Q882.0241337458717 322.3929990727721 882.0241337458717 330.316494835668L882.0241337458717 330.316494835668L882.0241337458717 337.9212292747693Q875.0569219543597 338.3082965965199 868.6589268124812 341.92851448818783L868.6589268124812 341.92851448818783Q863.1261409780454 345.11612772613444 863.1261409780454 347.75729298043314L863.1261409780454 347.75729298043314Q863.1261409780454 348.6452709538611 863.7636636256348 349.32833093342106Q864.4011862732239 350.011390912981 865.289164246652 350.17077157487836L865.289164246652 350.17077157487836Q868.6589268124812 346.23179235941575 874.7836979625358 343.59062710511716Q880.9084691125904 340.94946185081847 889.3101068611784 340.94946185081847Q897.7117446097661 340.94946185081847 904.4285010754393 343.52232110716113L904.4285010754393 343.52232110716113Q912.9212134879685 346.7327030110931 917.7937080088298 353.29007881486905L917.7937080088298 353.29007881486905Q923.6452551670604 361.28188057572083 923.6452551670604 373.3720422139327L923.6452551670604 373.3720422139327ZM937.2609174262896 401.1498147160389L937.2609174262896 378.01685007494063L942.2017179451068 378.01685007494063Q946.2090031585253 378.01685007494063 946.2090031585253 375.37568482064205L946.2090031585253 375.37568482064205Q946.2090031585253 375.0569234968474 946.049622496628 374.41940084925795L946.049622496628 374.41940084925795L928.130682366171 374.41940084925795Q926.354726419315 368.8183090168661 926.354726419315 361.8966345573249Q926.354726419315 354.97496009778365 927.4020850546403 350.64891356057035L927.4020850546403 350.64891356057035Q931.9558182517069 347.75729298043314 939.9703886785442 341.83743982424653L939.9703886785442 341.83743982424653Q942.2017179451068 336.3957286537519 945.8219358367749 324.5560223413788L945.8219358367749 324.5560223413788Q946.3000778224666 322.93944705642014 946.9376004700559 321.43671510138813L946.9376004700559 321.43671510138813Q953.1762149500373 319.82013981642956 961.1907853768746 319.82013981642956Q969.1825871377264 319.82013981642956 976.946702238725 321.50502109934416L976.946702238725 321.50502109934416L976.946702238725 341.1088425127158L990.7900511578075 341.1088425127158Q995.4348590188154 348.1671289681691 995.4348590188154 357.68443135003827L995.4348590188154 357.68443135003827Q995.4348590188154 362.01047788725157 994.250888387578 366.5642110843181Q993.0441490903554 371.14071294737005 990.7900511578075 374.32832618531666L990.7900511578075 374.32832618531666L979.3601808331703 374.32832618531666L979.3601808331703 386.4184878235285Q979.3601808331703 396.6643875169283 987.9211992436553 396.6643875169283L987.9211992436553 396.6643875169283L991.3592678074408 396.6643875169283Q993.0441490903554 402.7436213350122 993.0441490903554 407.22904853412285L993.0441490903554 407.22904853412285Q993.0441490903554 418.2718515370093 986.1224746308142 424.16893602721063Q979.2008001712729 430.0432518514265 966.017742565765 430.0432518514265Q952.8574536262427 430.0432518514265 945.0478011932735 422.73451007013466Q937.2609174262896 415.40299962285735 937.2609174262896 401.1498147160389L937.2609174262896 401.1498147160389ZM1082.1379390909633 360.25729060638093L1082.1379390909633 371.68716093101807Q1082.456700414758 371.9376162568567 1083.9822010357752 371.9376162568567Q1085.4849329908075 371.9376162568567 1086.3046049662794 370.7308769596341Q1087.1015082757658 369.52413766241136 1087.1015082757658 366.81466641015675L1087.1015082757658 366.81466641015675L1087.1015082757658 363.92304583001953Q1087.1015082757658 361.0541939158676 1086.418448296206 359.8019172866742Q1085.735388316646 358.5724093234662 1084.1643503636578 358.5724093234662Q1082.6160810766555 358.5724093234662 1082.0468644270222 358.8911706472609L1082.0468644270222 358.8911706472609Q1082.1379390909633 359.27823796901157 1082.1379390909633 360.25729060638093L1082.1379390909633 360.25729060638093ZM1123.4402991883576 389.94763105125514L1123.4402991883576 389.94763105125514L1137.28364810744 404.1097412941323Q1135.8492221503639 416.6097389200801 1129.4056896765146 423.3264953857532Q1122.9621572026654 430.0432518514265 1111.6005928759841 430.0432518514265L1111.6005928759841 430.0432518514265Q1103.0168057995138 430.0432518514265 1096.7098853215766 425.9676606400519L1096.7098853215766 425.9676606400519Q1088.6270088967835 420.84471079335196 1084.6197236833646 409.6425271285682L1084.6197236833646 409.6425271285682L1081.7281031032276 401.78733736362824Q1078.3811092033834 401.7190313656722 1073.2581593566838 400.92212805618567L1073.2581593566838 400.92212805618567Q1072.597868043109 401.5596507037749 1072.597868043109 402.6753153370563L1072.597868043109 402.6753153370563Q1072.597868043109 404.8383386056629 1079.0869378489288 405.2254059274136L1079.0869378489288 405.2254059274136L1083.6634397119806 416.7691195819774L1083.6634397119806 423.57695071159196Q1074.442129987921 430.0432518514265 1060.0295644192051 430.0432518514265L1060.0295644192051 430.0432518514265Q1049.7153587278494 430.0432518514265 1043.5450502458239 425.8082799781546Q1037.3975104297842 421.5733081048826 1037.3975104297842 413.4904316800894L1037.3975104297842 413.4904316800894L1037.3975104297842 337.4430872890773Q1037.3975104297842 333.91394406135066 1043.8638115696185 330.589718827492Q1050.3528813754388 327.26549359363344 1060.849236394677 325.2390823209388Q1071.3228227479303 323.18990238225877 1081.8191777671686 323.18990238225877L1081.8191777671686 323.18990238225877Q1105.8173517157097 323.18990238225877 1119.364707976983 333.0259660879227L1119.364707976983 333.0259660879227Q1133.5951242178162 343.3629404452638 1133.5951242178162 362.10155255119287L1133.5951242178162 362.10155255119287Q1133.5951242178162 372.82559423028465 1127.5614277317027 380.45309733537124Q1121.5049625796041 388.1033691064431 1112.3064215215295 391.06329568453646L1112.3064215215295 391.06329568453646Q1112.3064215215295 393.636154940879 1115.402960095535 393.636154940879Q1118.476730003555 393.636154940879 1123.4402991883576 389.94763105125514ZM1180.3391954857047 384.02777789506854L1180.3391954857047 384.02777789506854L1180.3391954857047 398.03050747604834Q1180.908412135338 398.59972412568163 1182.1834574305167 398.59972412568163Q1183.4812713916804 398.59972412568163 1184.0277193753286 397.7117461522537Q1184.596936024962 396.8237681788256 1184.596936024962 394.660744910219L1184.596936024962 394.660744910219L1184.596936024962 383.2308745855819Q1184.596936024962 375.5350654825394 1183.9594133773726 373.00774355816736Q1183.3218907297833 370.5031902997807 1181.5459347829274 370.5031902997807L1181.5459347829274 370.5031902997807Q1180.4302701496458 370.5031902997807 1179.6333668401594 371.3000936092674L1179.6333668401594 371.3000936092674Q1180.3391954857047 379.22358937216325 1180.3391954857047 384.02777789506854ZM1150.4211683809772 419.478590834232L1150.4211683809772 419.478590834232Q1137.28364810744 406.84198121237216 1137.28364810744 385.1889798603205Q1137.28364810744 363.53597850826884 1149.6470337374758 351.01321221633566Q1162.0104193675115 338.4676772584172 1182.1151514325607 338.4676772584172Q1202.1971148316243 338.4676772584172 1214.606037793631 351.51412286801303L1214.606037793631 351.51412286801303Q1226.9466547576812 364.56056847760885 1226.9466547576812 385.50774118411516Q1226.9466547576812 406.4321452246362 1215.0386424473522 418.77276218868667Q1203.1533988030083 431.09061048675187 1182.75267408015 431.09061048675187Q1162.3291806913062 431.09061048675187 1150.4211683809772 419.478590834232ZM1272.2335314025086 332.0013761185827L1272.2335314025086 332.0013761185827L1272.2335314025086 388.2627497683404Q1272.2335314025086 400.19353074465494 1278.016772562783 403.7909799703376L1278.016772562783 403.7909799703376Q1278.085078560739 404.2008159580736 1278.085078560739 405.3164805913549L1278.085078560739 405.3164805913549L1278.085078560739 406.75090654843086Q1278.085078560739 418.2035455390534 1272.279068734479 424.12339869523987Q1266.4730589082192 430.0432518514265 1255.8400918930688 430.0432518514265Q1245.184356211933 430.0432518514265 1238.9457417319518 424.12339869523987L1238.9457417319518 424.12339869523987Q1231.500387954748 417.08788090577207 1231.500387954748 402.83469599895363L1231.500387954748 402.83469599895363L1231.500387954748 319.66075915453223Q1239.9020257033358 314.5378093078323 1250.7399107123542 314.5378093078323Q1261.6005643873582 314.5378093078323 1266.928432227926 319.1370798368695Q1272.2335314025086 323.75911903189217 1272.2335314025086 332.0013761185827ZM1327.1515537591317 431.09061048675187L1327.1515537591317 431.09061048675187Q1304.9748730894175 431.09061048675187 1292.1788828056601 418.77276218868667L1292.1788828056601 418.77276218868667Q1279.041362532123 406.36383922668017 1279.041362532123 384.77914387258454Q1279.041362532123 363.2172171844742 1292.5659501274108 350.55783889662905L1292.5659501274108 350.55783889662905Q1305.0659477533586 338.7864385822119 1324.1916271810387 338.7864385822119Q1343.317306608718 338.7864385822119 1354.8837889292672 349.32833093342106Q1366.4502712498165 359.84745461864486 1366.4502712498165 375.2163041587447L1366.4502712498165 375.2163041587447Q1366.4502712498165 388.90027241592975 1356.9329688679472 395.86748420744163L1356.9329688679472 395.86748420744163Q1348.1214951316233 402.42486001121756 1332.9120262534211 402.42486001121756L1332.9120262534211 402.42486001121756Q1321.55046192674 402.42486001121756 1313.7180408277854 397.7117461522537L1313.7180408277854 397.7117461522537Q1313.0577495142106 398.1898881379457 1313.0577495142106 399.4649334331243L1313.0577495142106 399.4649334331243Q1313.0577495142106 401.87841202756954 1319.3874386581333 403.8820546342789L1319.3874386581333 403.8820546342789Q1325.7171278020555 406.0450779028855 1333.754466894878 406.0450779028855Q1341.7918059877006 406.0450779028855 1348.417487789433 403.9958979642056Q1355.0204009251793 401.94671802552557 1359.0049174726123 399.14617210932965L1359.0049174726123 399.14617210932965Q1360.9402540813658 400.83105339224426 1362.1014560466178 405.36201792332554Q1363.26265801187 409.87021378842144 1363.26265801187 413.60427501001607Q1363.26265801187 417.3155675656253 1362.534060700339 420.20718814576264L1362.534060700339 420.20718814576264Q1356.295446220358 425.4895186543599 1349.738070416582 427.72084792092255L1349.738070416582 427.72084792092255Q1340.4484546945664 431.09061048675187 1327.1515537591317 431.09061048675187ZM1326.1041951238062 376.9011854416593L1326.1041951238062 376.9011854416593Q1330.1114803372247 376.9011854416593 1330.1114803372247 373.85018419962466L1330.1114803372247 373.85018419962466Q1330.1114803372247 370.9813322854727 1325.876508463953 370.9813322854727Q1321.641536590681 370.9813322854727 1320.9812452771066 375.5350654825394L1320.9812452771066 375.5350654825394Q1323.2353432096543 376.9011854416593 1326.1041951238062 376.9011854416593Z " fill="oklch(60% 0.2 120)" transform="matrix(0.6403452413869534,0,0,0.6403452413869534,0,54.04589479141107)" />
  </g>
</svg>