<svg width="56" height="56" viewBox="0 0 56 56" fill="none" xmlns="http://www.w3.org/2000/svg">
  <circle cx="28" cy="28" r="28" fill="url(#gradient)" fill-opacity="0.1"/>
  <path d="M28 8C16.954 8 8 16.954 8 28s8.954 20 20 20 20-8.954 20-20S39.046 8 28 8zm0 36c-8.837 0-16-7.163-16-16S19.163 12 28 12s16 7.163 16 16-7.163 16-16 16z" fill="currentColor"/>
  <path d="M28 16c-6.627 0-12 5.373-12 12s5.373 12 12 12 12-5.373 12-12-5.373-12-12-12zm0 20c-4.418 0-8-3.582-8-8s3.582-8 8-8 8 3.582 8 8-3.582 8-8 8z" fill="currentColor"/>
  <path d="M28 24c-2.209 0-4 1.791-4 4s1.791 4 4 4 4-1.791 4-4-1.791-4-4-4z" fill="currentColor"/>
  <defs>
    <linearGradient id="gradient" x1="0%" y1="0%" x2="100%" y2="100%">
      <stop offset="0%" stop-color="#6366f1"/>
      <stop offset="100%" stop-color="#8b5cf6"/>
    </linearGradient>
  </defs>
</svg>
