<svg xmlns="http://www.w3.org/2000/svg" viewBox="0 0 200 260" fill="none" preserveAspectRatio="xMidYMid meet">
<rect x="0" y="0" width="200" height="260" fill="#FFFFFF" stroke="#E5E7EB" stroke-width="1"/>
<rect x="0" y="0" width="50" height="260" fill="#F1F2F7"/>
<rect x="0" y="0" width="2" height="260" fill="#4F46E5"/>
<rect x="8" y="16" width="14" height="2" fill="#4F46E5"/>
<rect x="8" y="22" width="30" height="1.5" fill="#CBD5E1"/>
<rect x="8" y="26" width="26" height="1.5" fill="#CBD5E1"/>
<rect x="8" y="30" width="32" height="1.5" fill="#CBD5E1"/>
<rect x="8" y="44" width="14" height="2" fill="#4F46E5"/>
<rect x="8" y="50" width="24" height="7" rx="2" fill="#FFFFFF" stroke="#E2E8F0" stroke-width="0.8"/>
<rect x="8" y="60" width="30" height="7" rx="2" fill="#FFFFFF" stroke="#E2E8F0" stroke-width="0.8"/>
<rect x="8" y="70" width="26" height="7" rx="2" fill="#FFFFFF" stroke="#E2E8F0" stroke-width="0.8"/>
<rect x="8" y="80" width="22" height="7" rx="2" fill="#FFFFFF" stroke="#E2E8F0" stroke-width="0.8"/>
<rect x="8" y="90" width="28" height="7" rx="2" fill="#FFFFFF" stroke="#E2E8F0" stroke-width="0.8"/>
<rect x="8" y="108" width="14" height="2" fill="#4F46E5"/>
<rect x="8" y="114" width="28" height="1.5" fill="#CBD5E1"/>
<rect x="8" y="118" width="24" height="1.5" fill="#CBD5E1"/>
<rect x="8" y="122" width="30" height="1.5" fill="#CBD5E1"/>
<rect x="8" y="140" width="14" height="2" fill="#4F46E5"/>
<rect x="8" y="146" width="32" height="2" fill="#0F172A"/>
<rect x="8" y="150" width="24" height="1.5" fill="#CBD5E1"/>
<rect x="8" y="158" width="30" height="2" fill="#0F172A"/>
<rect x="8" y="162" width="22" height="1.5" fill="#CBD5E1"/>
<rect x="60" y="22" width="80" height="5" fill="#0F172A"/>
<rect x="60" y="30" width="40" height="5" fill="#0F172A"/>
<rect x="60" y="40" width="55" height="3" fill="#4F46E5"/>
<rect x="60" y="60" width="18" height="2" fill="#4F46E5"/>
<rect x="60" y="66" width="130" height="1.5" fill="#CBD5E1"/>
<rect x="60" y="70" width="125" height="1.5" fill="#CBD5E1"/>
<rect x="60" y="74" width="110" height="1.5" fill="#CBD5E1"/>
<rect x="60" y="90" width="18" height="2" fill="#4F46E5"/>
<rect x="60" y="96" width="70" height="2.5" fill="#0F172A"/>
<rect x="155" y="96" width="30" height="2" fill="#CBD5E1"/>
<rect x="60" y="101" width="48" height="2" fill="#4F46E5"/>
<rect x="60" y="107" width="130" height="1.5" fill="#CBD5E1"/>
<rect x="60" y="111" width="115" height="1.5" fill="#CBD5E1"/>
<rect x="60" y="115" width="125" height="1.5" fill="#CBD5E1"/>
<rect x="60" y="126" width="60" height="2.5" fill="#0F172A"/>
<rect x="155" y="126" width="30" height="2" fill="#CBD5E1"/>
<rect x="60" y="131" width="45" height="2" fill="#4F46E5"/>
<rect x="60" y="137" width="128" height="1.5" fill="#CBD5E1"/>
<rect x="60" y="141" width="118" height="1.5" fill="#CBD5E1"/>
<rect x="60" y="160" width="18" height="2" fill="#4F46E5"/>
<rect x="60" y="166" width="75" height="2.5" fill="#0F172A"/>
<rect x="155" y="166" width="30" height="2" fill="#CBD5E1"/>
<rect x="60" y="171" width="100" height="1.5" fill="#CBD5E1"/>
</svg>
