<svg xmlns="http://www.w3.org/2000/svg" width="200" height="260" viewBox="0 0 200 260">
  <!-- Page background + border -->
  <rect width="200" height="260" fill="#FFFFFF" stroke="#E5E7EB" stroke-width="1"/>

  <!-- Header band (indigo-600) -->
  <rect x="0" y="0" width="200" height="52" fill="#4F46E5"/>
  <!-- Name rect -->
  <rect x="12" y="14" width="100" height="10" rx="2" fill="#FFFFFF" opacity="0.9"/>
  <!-- Role/subtitle rect -->
  <rect x="12" y="30" width="70" height="7" rx="2" fill="#C7D2FE" opacity="0.7"/>

  <!-- Left column background (indigo-50), starts at y=52 -->
  <rect x="0" y="52" width="70" height="208" fill="#EEF2FF"/>

  <!-- Left column content lines -->
  <!-- Contact section label -->
  <rect x="8" y="68" width="30" height="5" rx="1" fill="#4F46E5" opacity="0.6"/>
  <!-- Contact values -->
  <rect x="8" y="78" width="52" height="4" rx="1" fill="#9CA3AF" opacity="0.7"/>
  <rect x="8" y="86" width="44" height="4" rx="1" fill="#9CA3AF" opacity="0.7"/>
  <rect x="8" y="94" width="48" height="4" rx="1" fill="#9CA3AF" opacity="0.7"/>

  <!-- Skills section label -->
  <rect x="8" y="110" width="28" height="5" rx="1" fill="#4F46E5" opacity="0.6"/>
  <!-- Skill tags -->
  <rect x="8" y="120" width="20" height="4" rx="1" fill="#4F46E5" opacity="0.3"/>
  <rect x="32" y="120" width="22" height="4" rx="1" fill="#4F46E5" opacity="0.3"/>
  <rect x="8" y="128" width="26" height="4" rx="1" fill="#4F46E5" opacity="0.3"/>
  <rect x="38" y="128" width="16" height="4" rx="1" fill="#4F46E5" opacity="0.3"/>

  <!-- Languages section label -->
  <rect x="8" y="144" width="38" height="5" rx="1" fill="#4F46E5" opacity="0.6"/>
  <rect x="8" y="154" width="50" height="4" rx="1" fill="#9CA3AF" opacity="0.7"/>

  <!-- Certifications section label -->
  <rect x="8" y="170" width="46" height="5" rx="1" fill="#4F46E5" opacity="0.6"/>
  <rect x="8" y="180" width="54" height="4" rx="1" fill="#6B7280" opacity="0.6"/>
  <rect x="8" y="188" width="42" height="4" rx="1" fill="#9CA3AF" opacity="0.5"/>
  <rect x="8" y="198" width="50" height="4" rx="1" fill="#6B7280" opacity="0.6"/>
  <rect x="8" y="206" width="36" height="4" rx="1" fill="#9CA3AF" opacity="0.5"/>

  <!-- Right column content, starts at x=70 -->
  <!-- Summary heading + underline -->
  <rect x="78" y="62" width="46" height="6" rx="1" fill="#4F46E5" opacity="0.7"/>
  <rect x="78" y="70" width="114" height="1" fill="#C7D2FE"/>
  <!-- Summary body lines -->
  <rect x="78" y="75" width="112" height="4" rx="1" fill="#9CA3AF" opacity="0.7"/>
  <rect x="78" y="83" width="104" height="4" rx="1" fill="#9CA3AF" opacity="0.7"/>
  <rect x="78" y="91" width="90" height="4" rx="1" fill="#9CA3AF" opacity="0.5"/>

  <!-- Experience heading + underline -->
  <rect x="78" y="106" width="58" height="6" rx="1" fill="#4F46E5" opacity="0.7"/>
  <rect x="78" y="114" width="114" height="1" fill="#C7D2FE"/>
  <!-- Exp item 1 -->
  <rect x="78" y="119" width="80" height="5" rx="1" fill="#374151" opacity="0.7"/>
  <rect x="78" y="128" width="60" height="4" rx="1" fill="#9CA3AF" opacity="0.6"/>
  <rect x="148" y="128" width="44" height="4" rx="1" fill="#9CA3AF" opacity="0.5"/>
  <rect x="78" y="136" width="112" height="4" rx="1" fill="#9CA3AF" opacity="0.5"/>
  <rect x="78" y="144" width="108" height="4" rx="1" fill="#9CA3AF" opacity="0.5"/>
  <!-- bullet -->
  <rect x="84" y="152" width="3" height="3" rx="1" fill="#4F46E5" opacity="0.5"/>
  <rect x="90" y="152" width="100" height="3" rx="1" fill="#9CA3AF" opacity="0.5"/>
  <rect x="84" y="158" width="3" height="3" rx="1" fill="#4F46E5" opacity="0.5"/>
  <rect x="90" y="158" width="90" height="3" rx="1" fill="#9CA3AF" opacity="0.5"/>

  <!-- Exp item 2 -->
  <rect x="78" y="168" width="72" height="5" rx="1" fill="#374151" opacity="0.7"/>
  <rect x="78" y="177" width="55" height="4" rx="1" fill="#9CA3AF" opacity="0.6"/>
  <rect x="148" y="177" width="44" height="4" rx="1" fill="#9CA3AF" opacity="0.5"/>
  <rect x="78" y="185" width="112" height="4" rx="1" fill="#9CA3AF" opacity="0.5"/>

  <!-- Education heading + underline -->
  <rect x="78" y="200" width="50" height="6" rx="1" fill="#4F46E5" opacity="0.7"/>
  <rect x="78" y="208" width="114" height="1" fill="#C7D2FE"/>
  <!-- Edu item -->
  <rect x="78" y="213" width="90" height="5" rx="1" fill="#374151" opacity="0.7"/>
  <rect x="78" y="222" width="70" height="4" rx="1" fill="#9CA3AF" opacity="0.6"/>
  <rect x="78" y="230" width="86" height="4" rx="1" fill="#9CA3AF" opacity="0.5"/>
</svg>
